<svg xmlns="http://www.w3.org/2000/svg" viewBox="0 0 960 720" fill="none">
  <rect width="960" height="720" fill="#E7EEE9"/>
  <circle cx="700" cy="220" r="122" fill="#FBF9F5"/>
  <path d="M0 423C158 356 298 369 438 427C578 485 735 488 960 387V720H0V423Z" fill="#6B8E7B"/>
  <path d="M0 504C170 445 311 473 462 528C612 583 780 573 960 494V720H0V504Z" fill="#496856"/>
  <path d="M107 595C237 561 340 569 457 611" stroke="#FBF9F5" stroke-opacity=".75" stroke-width="5" stroke-linecap="round"/>
  <path d="M536 632C660 605 773 610 872 641" stroke="#FBF9F5" stroke-opacity=".55" stroke-width="5" stroke-linecap="round"/>
  <path d="M190 0V720" stroke="#C88A7B" stroke-opacity=".35" stroke-width="2"/>
  <path d="M752 0V720" stroke="#C88A7B" stroke-opacity=".35" stroke-width="2"/>
</svg>
